<svg width="45" height="45" viewBox="0 0 45 45" fill="none" xmlns="http://www.w3.org/2000/svg">

  <circle cx="22.5" cy="22.5" r="20" 
          stroke="#084676" 
          stroke-width="1.2"/>

  <path d="M14 27
           C11.8 27 10 25.2 10 23
           C10 20.9 11.6 19.2 13.7 19
           C14.6 15.7 17.7 13.5 21.2 13.5
           C25.3 13.5 28.5 16.7 28.5 20.8
           C30.8 21 32.5 22.9 32.5 25.2
           C32.5 27.5 30.6 29.5 28.2 29.5
           H14Z"
        stroke="#084676"
        stroke-width="1.8"
        stroke-linecap="round"
        stroke-linejoin="round"/>

  <path d="M22.5 20
           L27 22
           V25.5
           C27 28 25.2 30 22.5 30.8
           C19.8 30 18 28 18 25.5
           V22
           L22.5 20Z"
        stroke="#084676"
        stroke-width="1.6"
        stroke-linejoin="round"/>

  <path d="M20.7 25
           L22.1 26.4
           L24.7 23.8"
        stroke="#084676"
        stroke-width="1.6"
        stroke-linecap="round"
        stroke-linejoin="round"/>

</svg>