<svg viewBox="485.16401028277636 0 1075.7984575835476 791.34" version="1.1" xmlns="http://www.w3.org/2000/svg" id="Layer_1" style="max-height: 500px" width="1075.7984575835476" height="791.34">
  
  <g>
    <g>
      <rect fill="#074675" ry="10" rx="10" height="276.4" width="2051.4" y="886.7" x="0"/>
      <path fill="#0ba098" d="M10,886.7h532.4v276.4H10c-5.5,0-10-4.5-10-10v-256.4c0-5.5,4.5-10,10-10Z"/>
      <g>
        <path fill="#fff" d="M202.6,1074.3h-58.5l-11.8,38.2h-44.4l59.5-169.3h52.9l59.3,169.3h-45.4l-11.5-38.2ZM193.4,1044.3l-12.3-40.5-7.4-26.7h-.5l-6.9,26.4-12.6,40.8h39.8Z"/>
        <path fill="#fff" d="M365.8,1050.7v61.8h-44.1v-61.8l-59.8-107.5h45.7l23.9,46.4,12.6,28.2,12.8-28.2,23.9-46.4h44.9l-59.8,107.5Z"/>
      </g>
      <g>
        <path fill="#fff" d="M784.2,1112.8h-49l-52.6-91.6-12.8-25.1h-.3l1,31.3v85.4h-39v-169.3h49l52.6,91.6,12.8,25.1h.3l-1-31.3v-85.4h39v169.3Z"/>
        <path fill="#fff" d="M969.7,1043.7c0,47.7-25.7,71.6-75.7,71.6s-75.7-23.9-75.7-71.6v-100.3h44.4v101.1c0,24.4,10.3,36.2,31.3,36.2s31.6-11.8,31.6-36.2v-101.1h44.1v100.3Z"/>
        <path fill="#fff" d="M1199.9,1112.8h-39v-77.7l1.3-52.1h-.5l-41.8,129.8h-35.7l-41.8-129.8h-.5l1.3,52.1v77.7h-39.3v-169.3h62.9l26.7,86.2,9.5,35.9h.5l9.7-35.7,26.4-86.5h60.3v169.3Z"/>
        <path fill="#fff" d="M1237.4,943.4h131.9v34.1h-87.7v34.4h69.8v32.1h-69.8v34.6h91.1v34.1h-135.2v-169.3Z"/>
        <path fill="#fff" d="M1505.2,1112.8l-36.2-61.8h-26.4v61.8h-43.4v-169.3h80.8c40.3,0,63.9,20.3,63.9,52.1s-12.1,41.6-34.1,49l44.1,68.3h-48.8ZM1442.6,1019.6h31.3c17.2,0,25.7-6.4,25.7-21.6s-8.5-21.3-25.7-21.3h-31.3v42.8Z"/>
        <path fill="#fff" d="M1620.2,1112.8h-44.1v-169.3h44.1v169.3Z"/>
        <path fill="#fff" d="M1733.6,1115.3c-51.6,0-83.1-32.6-83.1-87.2s31.8-87.2,82.9-87.2,63.9,14.6,72.4,46.7l-38.7,15.7c-4.9-21-15.7-27.7-32.1-27.7-24.6,0-39.3,18-39.3,52.6s13.1,52.6,39.5,52.6,28.5-8.7,32.6-27.7l40,11.3c-10,35.4-38.2,51.1-74.2,51.1Z"/>
        <path fill="#fff" d="M1971.7,969.6l-21.3,28.5c-14.9-15.4-31.3-23.1-52.6-23.1s-26.4,6.9-26.4,15.9,6.4,12.1,21.3,15.4l28.5,6.4c33.9,7.7,49,22.3,49,47.2,0,36.2-30,55.4-71.6,55.4s-63.9-12.1-80.8-30.3l21.3-29.5c12.8,14.9,35.9,25.7,59,25.7s26.7-5.4,26.7-15.4c.3-7.2-4.1-12.3-18.5-15.7l-31.3-6.9c-28.7-6.2-49.5-19-49.5-47.2s27.2-55.2,73.1-55.2,55.4,9.8,73.1,28.7Z"/>
      </g>
    </g>
    <g>
      <g>
        <path fill="#0ba098" d="M1502.2,258.9V63.6s-258.9,0-258.9,0l-29.3-63.6v490.2s-100.7,100.7-100.7,100.7V63.6s-327.3,0-327.3,0v269s0,136.4,0,136.4l253,253,463.1-463.1ZM952.8,578.8l-100.7-100.7v-234s100.7-50.5,100.7-50.5v385.2ZM982.8,144.9l100.7-50.5v526.4s-44.3,44.3-44.3,44.3l-56.4-56.4V144.9Z"/>
        <polygon fill="#0ba098" points="786.1 779.8 954.7 779.8 786.1 611.2 786.1 699.6 786.1 779.8"/>
        <polygon fill="#074675" points="1123.6 779.8 1502.2 779.8 1502.2 482 1552 351.3 1123.6 779.8"/>
      </g>
      <path fill="#074675" d="M499.3,233.9l215.1,545.9-113-582.3-102.1,36.4Z"/>
      <polygon fill="#074675" points="743.5 122.9 636.1 122.9 743.5 779.8 743.5 122.9"/>
    </g>
  </g>
  <g>
    <path fill="#074675" d="M29.6,1271.1v-28.9l-26.7-45.6h6.8l22.9,39.6h.3l23.2-39.6h6l-26.7,45.6v28.9h-5.9Z"/>
    <path fill="#074675" d="M99.5,1272.2c-4,0-7.7-.5-11.2-1.6-3.5-1.1-6.5-3-9.1-5.7-2.6-2.7-4.6-6.5-6.1-11.3-1.4-4.8-2.2-10.9-2.2-18.3v-2.8c0-7.5.8-13.6,2.3-18.4,1.6-4.8,3.7-8.6,6.4-11.2,2.7-2.7,5.8-4.6,9.3-5.6s7.1-1.6,10.9-1.6h.3c4,0,7.7.5,11.2,1.6,3.5,1.1,6.5,3,9.1,5.7,2.6,2.7,4.6,6.5,6.1,11.3,1.4,4.8,2.2,10.9,2.2,18.3v2.8c0,7.5-.8,13.6-2.3,18.4-1.6,4.8-3.7,8.6-6.4,11.2-2.7,2.7-5.8,4.6-9.2,5.6-3.4,1.1-7.1,1.6-10.9,1.6h-.3ZM99.8,1267c3.2,0,6.2-.4,9-1.3,2.8-.9,5.2-2.4,7.3-4.6,2.1-2.2,3.7-5.3,4.9-9.3,1.2-4,1.8-9,1.8-15.2v-5.4c0-6.2-.6-11.2-1.8-15.2-1.2-4-2.8-7.1-4.9-9.3-2.1-2.2-4.5-3.7-7.3-4.6-2.8-.9-5.8-1.3-9-1.3s-6.2.4-9,1.3c-2.8.9-5.2,2.4-7.3,4.6-2.1,2.2-3.7,5.3-4.9,9.3-1.2,4-1.8,9-1.8,15.2v5.4c0,6.2.6,11.2,1.8,15.2,1.2,4,2.8,7.1,4.9,9.3,2.1,2.2,4.5,3.7,7.3,4.6,2.8.9,5.8,1.3,9,1.3Z"/>
    <path fill="#074675" d="M173.3,1272.2c-5.1,0-9.6-1-13.5-3.1-3.8-2.1-6.8-5-9-8.7-2.1-3.8-3.2-8.1-3.2-13.1v-50.6h5.9v50.4c0,6,1.7,10.8,5.2,14.5,3.5,3.7,8.4,5.5,14.8,5.5s11.4-1.9,14.9-5.6c3.5-3.7,5.2-8.5,5.2-14.4v-50.4h5.9v50.6c0,4.9-1.1,9.3-3.3,13-2.2,3.8-5.2,6.7-9,8.8-3.8,2.1-8.2,3.1-13.3,3.1h-.7Z"/>
    <path fill="#074675" d="M274.4,1271.5c-1.1,0-2.3-.3-3.6-1-1.3-.7-2.5-2-3.4-4-.9-2-1.4-5.1-1.4-9.1s-.5-8.5-1.6-11.3c-1.1-2.7-2.4-4.8-4.1-6.1-1.6-1.3-3.2-2.2-4.7-2.6-1.5-.4-2.7-.5-3.6-.5h-24v34.3h-5.9v-74.5h31.4c3.5,0,6.8.7,9.7,2.2,2.9,1.4,5.3,3.5,7.1,6.1,1.8,2.6,2.7,5.8,2.7,9.6s-.6,5.7-1.7,8.2c-1.2,2.5-2.7,4.7-4.7,6.6-2,1.9-4.1,3.3-6.5,4.3v.5c2.3.8,4.2,1.9,5.8,3.2,1.5,1.3,2.9,3.4,4,6.1,1.2,2.7,1.7,6.4,1.7,10.9s.2,5.9.5,7.8c.3,1.8.7,3.2,1.2,4,.5.8,1.1,1.4,1.8,1.7.7.3,1.4.6,2,1v2.1c-1,.3-1.9.4-2.7.4ZM227.9,1231.6h24.8c2.7,0,5.1-.8,7.3-2.4,2.2-1.6,4-3.7,5.3-6.2,1.3-2.5,2-5.2,2-8,0-4.3-1.4-7.5-4.1-9.8-2.7-2.2-6.2-3.4-10.5-3.4h-24.8v29.7Z"/>
    <path fill="#074675" d="M311.5,1271.1l30.8-74.5h5.4l30.8,74.5h-6.4l-7.7-18.5h-39.3l-7.6,18.5h-6.1ZM327.4,1247.4h35l-17.3-42.7h-.4l-17.3,42.7Z"/>
    <path fill="#074675" d="M415.9,1272.2c-3.9,0-7.5-.5-10.9-1.6-3.3-1.1-6.2-3-8.7-5.6-2.5-2.7-4.4-6.4-5.8-11.2-1.4-4.8-2.1-10.9-2.1-18.4v-2.8c0-7.5.7-13.6,2.2-18.4,1.5-4.8,3.5-8.6,6.2-11.2,2.6-2.7,5.7-4.6,9.1-5.6,3.4-1.1,7.1-1.6,11-1.6h.5c3.5,0,6.8.4,10,1.3,3.2.9,6,2.4,8.5,4.5,2.5,2.1,4.4,5,5.9,8.7,1.4,3.7,2.2,8.3,2.2,13.9h-5.8c0-6.2-1-11-2.9-14.4-2-3.4-4.6-5.7-7.8-6.9-3.3-1.3-6.9-1.9-10.9-1.9s-6.1.4-8.8,1.3-5.1,2.4-7.1,4.6c-2,2.2-3.6,5.3-4.7,9.3-1.1,4-1.7,9-1.7,15.2v5.4c0,8.2.9,14.5,2.7,18.9,1.8,4.4,4.4,7.4,7.7,9.1,3.3,1.6,7.2,2.4,11.7,2.4s7.4-.7,10.7-2c3.3-1.3,6-3.6,8-6.9,2.1-3.3,3.1-8.1,3.1-14.2h5.8c0,5.3-.8,9.8-2.3,13.4-1.5,3.7-3.6,6.6-6.2,8.7-2.6,2.2-5.6,3.7-8.8,4.7-3.3,1-6.7,1.5-10.3,1.5h-.5Z"/>
    <path fill="#074675" d="M487.9,1272.2c-3.9,0-7.5-.5-10.9-1.6-3.3-1.1-6.2-3-8.7-5.6-2.5-2.7-4.4-6.4-5.8-11.2-1.4-4.8-2.1-10.9-2.1-18.4v-2.8c0-7.5.7-13.6,2.2-18.4,1.5-4.8,3.5-8.6,6.2-11.2,2.6-2.7,5.7-4.6,9.1-5.6,3.4-1.1,7.1-1.6,11-1.6h.5c3.5,0,6.8.4,10,1.3,3.2.9,6,2.4,8.5,4.5,2.5,2.1,4.4,5,5.9,8.7,1.4,3.7,2.2,8.3,2.2,13.9h-5.8c0-6.2-1-11-2.9-14.4-2-3.4-4.6-5.7-7.8-6.9-3.3-1.3-6.9-1.9-10.9-1.9s-6.1.4-8.8,1.3-5.1,2.4-7.1,4.6c-2,2.2-3.6,5.3-4.7,9.3-1.1,4-1.7,9-1.7,15.2v5.4c0,8.2.9,14.5,2.7,18.9,1.8,4.4,4.4,7.4,7.7,9.1,3.3,1.6,7.2,2.4,11.7,2.4s7.4-.7,10.7-2c3.3-1.3,6-3.6,8-6.9,2.1-3.3,3.1-8.1,3.1-14.2h5.8c0,5.3-.8,9.8-2.3,13.4-1.5,3.7-3.6,6.6-6.2,8.7-2.6,2.2-5.6,3.7-8.8,4.7-3.3,1-6.7,1.5-10.3,1.5h-.5Z"/>
    <path fill="#074675" d="M561,1272.2c-4,0-7.7-.5-11.2-1.6-3.5-1.1-6.5-3-9.1-5.7-2.6-2.7-4.6-6.5-6.1-11.3-1.4-4.8-2.2-10.9-2.2-18.3v-2.8c0-7.5.8-13.6,2.3-18.4,1.6-4.8,3.7-8.6,6.4-11.2,2.7-2.7,5.8-4.6,9.3-5.6s7.1-1.6,10.9-1.6h.3c4,0,7.7.5,11.2,1.6,3.5,1.1,6.5,3,9.1,5.7,2.6,2.7,4.6,6.5,6.1,11.3,1.4,4.8,2.2,10.9,2.2,18.3v2.8c0,7.5-.8,13.6-2.3,18.4-1.6,4.8-3.7,8.6-6.4,11.2-2.7,2.7-5.8,4.6-9.2,5.6-3.4,1.1-7.1,1.6-10.9,1.6h-.3ZM561.3,1267c3.2,0,6.2-.4,9-1.3,2.8-.9,5.2-2.4,7.3-4.6,2.1-2.2,3.7-5.3,4.9-9.3,1.2-4,1.8-9,1.8-15.2v-5.4c0-6.2-.6-11.2-1.8-15.2-1.2-4-2.8-7.1-4.9-9.3-2.1-2.2-4.5-3.7-7.3-4.6-2.8-.9-5.8-1.3-9-1.3s-6.2.4-9,1.3c-2.8.9-5.2,2.4-7.3,4.6-2.1,2.2-3.7,5.3-4.9,9.3-1.2,4-1.8,9-1.8,15.2v5.4c0,6.2.6,11.2,1.8,15.2,1.2,4,2.8,7.1,4.9,9.3,2.1,2.2,4.5,3.7,7.3,4.6,2.8.9,5.8,1.3,9,1.3Z"/>
    <path fill="#074675" d="M634.8,1272.2c-5.1,0-9.6-1-13.5-3.1-3.8-2.1-6.8-5-9-8.7-2.1-3.8-3.2-8.1-3.2-13.1v-50.6h5.9v50.4c0,6,1.7,10.8,5.2,14.5,3.5,3.7,8.4,5.5,14.8,5.5s11.4-1.9,14.9-5.6c3.5-3.7,5.2-8.5,5.2-14.4v-50.4h5.9v50.6c0,4.9-1.1,9.3-3.3,13-2.2,3.8-5.2,6.7-9,8.8-3.8,2.1-8.2,3.1-13.3,3.1h-.7Z"/>
    <path fill="#074675" d="M683.5,1271.1v-74.5h5l36.8,56.2,4.7,7.4h.3v-63.6h5.2v74.5h-5.2l-37.8-58-3.5-5.6h-.3v63.6h-5.2Z"/>
    <path fill="#074675" d="M775.6,1271.1v-69.3h-25.1v-5.2h56v5.2h-25.1v69.3h-5.9Z"/>
    <path fill="#074675" d="M844.1,1272.2c-4.9,0-9.4-.7-13.5-2-4.1-1.3-7.3-3.6-9.8-6.7-2.4-3.1-3.6-7.3-3.6-12.7v-1c0-.4,0-.7.1-1h5.5c0,.5-.1,1-.1,1.5v1.5c0,3.8.9,6.8,2.8,9,1.9,2.2,4.4,3.8,7.6,4.8,3.2,1,6.7,1.5,10.5,1.5s7.5-.5,10.6-1.4c3.2-.9,5.7-2.6,7.6-4.9,1.9-2.4,2.8-5.6,2.8-9.6s-.8-6-2.5-8c-1.7-2-3.9-3.6-6.6-4.7-2.7-1.2-5.7-2.2-9-3-3.3-.8-6.5-1.7-9.7-2.6-3.2-.9-6.2-2-8.9-3.4s-4.9-3.3-6.6-5.8c-1.7-2.4-2.5-5.6-2.5-9.4s1.1-7.8,3.4-10.5c2.3-2.8,5.3-4.8,9.1-6.1,3.8-1.3,7.8-2,12.2-2s8.7.7,12.4,2c3.7,1.3,6.7,3.4,8.9,6.2,2.2,2.9,3.3,6.6,3.3,11.3v1.4h-5.4v-2.4c0-3-.9-5.5-2.6-7.5s-4-3.4-6.9-4.4c-2.9-1-6.1-1.5-9.6-1.5s-6.7.4-9.6,1.3c-2.9.9-5.2,2.3-6.9,4.2-1.7,2-2.6,4.6-2.6,7.8s.8,5.4,2.5,7.2c1.7,1.8,3.9,3.3,6.6,4.3,2.7,1.1,5.7,2,9,2.8,3.3.8,6.5,1.7,9.7,2.7,3.2,1,6.2,2.2,8.9,3.7,2.7,1.5,4.9,3.5,6.6,6.1,1.7,2.5,2.5,5.8,2.5,9.8s-1.2,9.5-3.6,12.6c-2.4,3.1-5.6,5.4-9.6,6.8-4,1.4-8.4,2.1-13.1,2.1Z"/>
    <path fill="#074675" d="M941.6,1272.2c-4,0-7.7-.5-11.2-1.6-3.5-1.1-6.5-3-9.1-5.7-2.6-2.7-4.6-6.5-6.1-11.3-1.4-4.8-2.2-10.9-2.2-18.3v-2.8c0-7.5.8-13.6,2.3-18.4,1.6-4.8,3.7-8.6,6.4-11.2,2.7-2.7,5.8-4.6,9.3-5.6s7.1-1.6,10.9-1.6h.3c4,0,7.7.5,11.2,1.6,3.5,1.1,6.5,3,9.1,5.7,2.6,2.7,4.6,6.5,6.1,11.3,1.4,4.8,2.2,10.9,2.2,18.3v2.8c0,7.5-.8,13.6-2.3,18.4-1.6,4.8-3.7,8.6-6.4,11.2-2.7,2.7-5.8,4.6-9.2,5.6-3.4,1.1-7.1,1.6-10.9,1.6h-.3ZM941.9,1267c3.2,0,6.2-.4,9-1.3,2.8-.9,5.2-2.4,7.3-4.6,2.1-2.2,3.7-5.3,4.9-9.3,1.2-4,1.8-9,1.8-15.2v-5.4c0-6.2-.6-11.2-1.8-15.2-1.2-4-2.8-7.1-4.9-9.3-2.1-2.2-4.5-3.7-7.3-4.6-2.8-.9-5.8-1.3-9-1.3s-6.2.4-9,1.3c-2.8.9-5.2,2.4-7.3,4.6-2.1,2.2-3.7,5.3-4.9,9.3-1.2,4-1.8,9-1.8,15.2v5.4c0,6.2.6,11.2,1.8,15.2,1.2,4,2.8,7.1,4.9,9.3,2.1,2.2,4.5,3.7,7.3,4.6,2.8.9,5.8,1.3,9,1.3Z"/>
    <path fill="#074675" d="M1015.4,1272.2c-5.1,0-9.6-1-13.5-3.1-3.8-2.1-6.8-5-9-8.7-2.1-3.8-3.2-8.1-3.2-13.1v-50.6h5.9v50.4c0,6,1.7,10.8,5.2,14.5,3.5,3.7,8.4,5.5,14.8,5.5s11.4-1.9,14.9-5.6c3.5-3.7,5.2-8.5,5.2-14.4v-50.4h5.9v50.6c0,4.9-1.1,9.3-3.3,13-2.2,3.8-5.2,6.7-9,8.8-3.8,2.1-8.2,3.1-13.3,3.1h-.7Z"/>
    <path fill="#074675" d="M1080.9,1271.1v-69.3h-25.1v-5.2h56v5.2h-25.1v69.3h-5.9Z"/>
    <path fill="#074675" d="M1149.4,1272.2c-4.9,0-9.4-.7-13.5-2-4.1-1.3-7.3-3.6-9.8-6.7-2.4-3.1-3.6-7.3-3.6-12.7v-1c0-.4,0-.7.1-1h5.5c0,.5-.1,1-.1,1.5v1.5c0,3.8.9,6.8,2.8,9,1.9,2.2,4.4,3.8,7.6,4.8,3.2,1,6.7,1.5,10.5,1.5s7.5-.5,10.6-1.4c3.2-.9,5.7-2.6,7.6-4.9,1.9-2.4,2.8-5.6,2.8-9.6s-.8-6-2.5-8c-1.7-2-3.9-3.6-6.6-4.7-2.7-1.2-5.7-2.2-9-3-3.3-.8-6.5-1.7-9.7-2.6-3.2-.9-6.2-2-8.9-3.4s-4.9-3.3-6.6-5.8c-1.7-2.4-2.5-5.6-2.5-9.4s1.1-7.8,3.4-10.5c2.3-2.8,5.3-4.8,9.1-6.1,3.8-1.3,7.8-2,12.2-2s8.7.7,12.4,2c3.7,1.3,6.7,3.4,8.9,6.2,2.2,2.9,3.3,6.6,3.3,11.3v1.4h-5.4v-2.4c0-3-.9-5.5-2.6-7.5-1.7-2-4-3.4-6.9-4.4-2.9-1-6.1-1.5-9.6-1.5s-6.7.4-9.6,1.3c-2.9.9-5.2,2.3-6.9,4.2-1.7,2-2.6,4.6-2.6,7.8s.8,5.4,2.5,7.2c1.7,1.8,3.9,3.3,6.6,4.3,2.7,1.1,5.7,2,9,2.8,3.3.8,6.5,1.7,9.7,2.7,3.2,1,6.2,2.2,8.9,3.7,2.7,1.5,4.9,3.5,6.6,6.1,1.7,2.5,2.5,5.8,2.5,9.8s-1.2,9.5-3.6,12.6c-2.4,3.1-5.6,5.4-9.6,6.8-4,1.4-8.4,2.1-13.1,2.1Z"/>
    <path fill="#074675" d="M1220.4,1272.2c-4,0-7.7-.5-11.2-1.6-3.5-1.1-6.5-3-9.1-5.7-2.6-2.7-4.6-6.5-6.1-11.3-1.4-4.8-2.2-10.9-2.2-18.3v-2.8c0-7.5.8-13.6,2.3-18.4,1.6-4.8,3.7-8.6,6.4-11.2,2.7-2.7,5.8-4.6,9.3-5.6s7.1-1.6,10.9-1.6h.3c4,0,7.7.5,11.2,1.6s6.5,3,9.1,5.7,4.6,6.5,6.1,11.3c1.4,4.8,2.2,10.9,2.2,18.3v2.8c0,7.5-.8,13.6-2.3,18.4-1.6,4.8-3.7,8.6-6.4,11.2-2.7,2.7-5.8,4.6-9.2,5.6-3.4,1.1-7.1,1.6-10.9,1.6h-.3ZM1220.7,1267c3.2,0,6.2-.4,9-1.3,2.8-.9,5.2-2.4,7.3-4.6,2.1-2.2,3.7-5.3,4.9-9.3,1.2-4,1.8-9,1.8-15.2v-5.4c0-6.2-.6-11.2-1.8-15.2-1.2-4-2.8-7.1-4.9-9.3-2.1-2.2-4.5-3.7-7.3-4.6-2.8-.9-5.8-1.3-9-1.3s-6.2.4-9,1.3c-2.8.9-5.2,2.4-7.3,4.6-2.1,2.2-3.7,5.3-4.9,9.3-1.2,4-1.8,9-1.8,15.2v5.4c0,6.2.6,11.2,1.8,15.2,1.2,4,2.8,7.1,4.9,9.3,2.1,2.2,4.5,3.7,7.3,4.6,2.8.9,5.8,1.3,9,1.3Z"/>
    <path fill="#074675" d="M1294.2,1272.2c-5.1,0-9.6-1-13.5-3.1-3.8-2.1-6.8-5-9-8.7-2.1-3.8-3.2-8.1-3.2-13.1v-50.6h5.9v50.4c0,6,1.7,10.8,5.2,14.5,3.5,3.7,8.4,5.5,14.8,5.5s11.4-1.9,14.9-5.6c3.5-3.7,5.2-8.5,5.2-14.4v-50.4h5.9v50.6c0,4.9-1.1,9.3-3.3,13-2.2,3.8-5.2,6.7-9,8.8-3.8,2.1-8.2,3.1-13.3,3.1h-.7Z"/>
    <path fill="#074675" d="M1395.3,1271.5c-1.1,0-2.3-.3-3.6-1-1.3-.7-2.5-2-3.4-4-.9-2-1.4-5.1-1.4-9.1s-.5-8.5-1.6-11.3c-1.1-2.7-2.4-4.8-4.1-6.1-1.6-1.3-3.2-2.2-4.7-2.6-1.5-.4-2.7-.5-3.6-.5h-24v34.3h-5.9v-74.5h31.4c3.5,0,6.8.7,9.7,2.2,2.9,1.4,5.3,3.5,7.1,6.1,1.8,2.6,2.7,5.8,2.7,9.6s-.6,5.7-1.7,8.2c-1.2,2.5-2.7,4.7-4.7,6.6-2,1.9-4.1,3.3-6.5,4.3v.5c2.3.8,4.2,1.9,5.8,3.2,1.5,1.3,2.9,3.4,4,6.1,1.2,2.7,1.7,6.4,1.7,10.9s.2,5.9.5,7.8c.3,1.8.7,3.2,1.2,4,.5.8,1.1,1.4,1.8,1.7.7.3,1.4.6,2,1v2.1c-1,.3-1.9.4-2.7.4ZM1348.8,1231.6h24.8c2.7,0,5.1-.8,7.3-2.4,2.2-1.6,4-3.7,5.3-6.2,1.3-2.5,2-5.2,2-8,0-4.3-1.4-7.5-4.1-9.8-2.7-2.2-6.2-3.4-10.5-3.4h-24.8v29.7Z"/>
    <path fill="#074675" d="M1440.1,1272.2c-3.9,0-7.5-.5-10.9-1.6-3.3-1.1-6.2-3-8.7-5.6-2.5-2.7-4.4-6.4-5.8-11.2-1.4-4.8-2.1-10.9-2.1-18.4v-2.8c0-7.5.7-13.6,2.2-18.4,1.5-4.8,3.5-8.6,6.2-11.2,2.6-2.7,5.7-4.6,9.1-5.6,3.4-1.1,7.1-1.6,11-1.6h.5c3.5,0,6.8.4,10,1.3,3.2.9,6,2.4,8.5,4.5,2.5,2.1,4.4,5,5.9,8.7,1.4,3.7,2.2,8.3,2.2,13.9h-5.8c0-6.2-1-11-2.9-14.4s-4.6-5.7-7.8-6.9c-3.3-1.3-6.9-1.9-10.9-1.9s-6.1.4-8.8,1.3-5.1,2.4-7.1,4.6c-2,2.2-3.6,5.3-4.7,9.3-1.1,4-1.7,9-1.7,15.2v5.4c0,8.2.9,14.5,2.7,18.9,1.8,4.4,4.4,7.4,7.7,9.1,3.3,1.6,7.2,2.4,11.7,2.4s7.4-.7,10.7-2c3.3-1.3,6-3.6,8-6.9,2.1-3.3,3.1-8.1,3.1-14.2h5.8c0,5.3-.8,9.8-2.3,13.4-1.5,3.7-3.6,6.6-6.2,8.7-2.6,2.2-5.6,3.7-8.8,4.7-3.3,1-6.7,1.5-10.3,1.5h-.5Z"/>
    <path fill="#074675" d="M1487.7,1271.1v-74.5h46l-1.1,5.2h-39.1v28.7h34.6v5.2h-34.6v30.2h40.1l1.2,5.2h-47.1Z"/>
    <path fill="#074675" d="M1578.5,1271.1v-74.5h31.3c4,0,7.4.8,10.4,2.4,2.9,1.6,5.2,3.9,6.8,6.7,1.6,2.9,2.4,6.1,2.4,9.8v.4c0,3.6-.8,7.1-2.5,10.3-1.7,3.3-4,5.9-6.9,7.9-3,2-6.5,3-10.5,3h-25v33.8h-5.9ZM1584.4,1232.2h24.3c3.1,0,5.8-.7,8-2.2,2.2-1.5,4-3.5,5.2-5.9,1.2-2.5,1.8-5.1,1.8-7.9,0-4.3-1.3-7.7-4-10.3-2.6-2.6-6.3-3.9-11-3.9h-24.3v30.3Z"/>
    <path fill="#074675" d="M1635,1271.1l30.8-74.5h5.4l30.8,74.5h-6.4l-7.7-18.5h-39.3l-7.6,18.5h-6.1ZM1650.8,1247.4h35l-17.3-42.7h-.4l-17.3,42.7Z"/>
    <path fill="#074675" d="M1767,1271.5c-1.1,0-2.3-.3-3.6-1-1.3-.7-2.5-2-3.4-4-.9-2-1.4-5.1-1.4-9.1s-.5-8.5-1.6-11.3c-1.1-2.7-2.4-4.8-4.1-6.1-1.6-1.3-3.2-2.2-4.7-2.6-1.5-.4-2.7-.5-3.6-.5h-24v34.3h-5.9v-74.5h31.4c3.5,0,6.8.7,9.7,2.2,2.9,1.4,5.3,3.5,7.1,6.1,1.8,2.6,2.7,5.8,2.7,9.6s-.6,5.7-1.7,8.2c-1.2,2.5-2.7,4.7-4.7,6.6-2,1.9-4.1,3.3-6.5,4.3v.5c2.3.8,4.2,1.9,5.8,3.2,1.5,1.3,2.9,3.4,4,6.1,1.2,2.7,1.7,6.4,1.7,10.9s.2,5.9.5,7.8c.3,1.8.7,3.2,1.2,4,.5.8,1.1,1.4,1.8,1.7.7.3,1.4.6,2,1v2.1c-1,.3-1.9.4-2.7.4ZM1720.5,1231.6h24.8c2.7,0,5.1-.8,7.3-2.4,2.2-1.6,4-3.7,5.3-6.2,1.3-2.5,2-5.2,2-8,0-4.3-1.4-7.5-4.1-9.8-2.7-2.2-6.2-3.4-10.5-3.4h-24.8v29.7Z"/>
    <path fill="#074675" d="M1803.1,1271.1v-69.3h-25.1v-5.2h56v5.2h-25.1v69.3h-5.9Z"/>
    <path fill="#074675" d="M1849.1,1271.1v-74.5h5l36.8,56.2,4.7,7.4h.3v-63.6h5.2v74.5h-5.2l-37.8-58-3.5-5.6h-.3v63.6h-5.2Z"/>
    <path fill="#074675" d="M1924.3,1271.1v-74.5h46l-1.1,5.2h-39.1v28.7h34.6v5.2h-34.6v30.2h40.1l1.2,5.2h-47.1Z"/>
    <path fill="#074675" d="M2041,1271.5c-1.1,0-2.3-.3-3.6-1-1.3-.7-2.5-2-3.4-4-.9-2-1.4-5.1-1.4-9.1s-.5-8.5-1.6-11.3c-1.1-2.7-2.4-4.8-4.1-6.1-1.6-1.3-3.2-2.2-4.7-2.6-1.5-.4-2.7-.5-3.6-.5h-24v34.3h-5.9v-74.5h31.4c3.5,0,6.8.7,9.7,2.2,2.9,1.4,5.3,3.5,7.1,6.1,1.8,2.6,2.7,5.8,2.7,9.6s-.6,5.7-1.7,8.2c-1.2,2.5-2.7,4.7-4.7,6.6-2,1.9-4.1,3.3-6.5,4.3v.5c2.3.8,4.2,1.9,5.8,3.2,1.5,1.3,2.9,3.4,4,6.1,1.2,2.7,1.7,6.4,1.7,10.9s.2,5.9.5,7.8c.3,1.8.7,3.2,1.2,4,.5.8,1.1,1.4,1.8,1.7.7.3,1.4.6,2,1v2.1c-1,.3-1.9.4-2.7.4ZM1994.5,1231.6h24.8c2.7,0,5.1-.8,7.3-2.4,2.2-1.6,4-3.7,5.3-6.2,1.3-2.5,2-5.2,2-8,0-4.3-1.4-7.5-4.1-9.8-2.7-2.2-6.2-3.4-10.5-3.4h-24.8v29.7Z"/>
  </g>
</svg>